G04 #@! TF.GenerationSoftware,KiCad,Pcbnew,(5.1.2)-1*
G04 #@! TF.CreationDate,2019-06-02T19:05:48-04:00*
G04 #@! TF.ProjectId,converter,636f6e76-6572-4746-9572-2e6b69636164,rev?*
G04 #@! TF.SameCoordinates,Original*
G04 #@! TF.FileFunction,Legend,Top*
G04 #@! TF.FilePolarity,Positive*
%FSLAX46Y46*%
G04 Gerber Fmt 4.6, Leading zero omitted, Abs format (unit mm)*
G04 Created by KiCad (PCBNEW (5.1.2)-1) date 2019-06-02 19:05:48*
%MOMM*%
%LPD*%
G04 APERTURE LIST*
%ADD10C,0.120000*%
%ADD11C,0.508000*%
%ADD12C,0.150000*%
G04 APERTURE END LIST*
D10*
X75936800Y-133785920D02*
X78596800Y-133785920D01*
X75936800Y-95625920D02*
X75936800Y-133785920D01*
X78596800Y-95625920D02*
X78596800Y-133785920D01*
X75936800Y-95625920D02*
X78596800Y-95625920D01*
X75936800Y-94355920D02*
X75936800Y-93025920D01*
X75936800Y-93025920D02*
X77266800Y-93025920D01*
D11*
X92436700Y-171494920D02*
X92436700Y-199394920D01*
X68036700Y-171494920D02*
X92436700Y-171494920D01*
X68036700Y-199394920D02*
X68036700Y-171494920D01*
X68036700Y-199394920D02*
X92436700Y-199394920D01*
D10*
X75879500Y-148388920D02*
X74109500Y-148388920D01*
X74109500Y-148388920D02*
X74109500Y-166408920D01*
X74109500Y-166408920D02*
X79649500Y-166408920D01*
X79649500Y-166408920D02*
X79649500Y-148388920D01*
X79649500Y-148388920D02*
X77879500Y-148388920D01*
X77879500Y-148388920D02*
G75*
G02X75879500Y-148388920I-1000000J0D01*
G01*
X94109800Y-163087920D02*
G75*
G03X94109800Y-163087920I-3870000J0D01*
G01*
X75518010Y-144984640D02*
X75518010Y-145873640D01*
X75518010Y-145429140D02*
X76110677Y-144984640D01*
X76110677Y-144984640D02*
X76110677Y-145873640D01*
X76110677Y-145873640D02*
X75518010Y-145429140D01*
X75249194Y-144837288D02*
G75*
G02X75278232Y-142804640I-1128184J1032648D01*
G01*
X138128000Y-152835920D02*
X138128000Y-150175920D01*
X99968000Y-152835920D02*
X138128000Y-152835920D01*
X99968000Y-150175920D02*
X138128000Y-150175920D01*
X99968000Y-152835920D02*
X99968000Y-150175920D01*
X98698000Y-152835920D02*
X97368000Y-152835920D01*
X97368000Y-152835920D02*
X97368000Y-151505920D01*
X156899300Y-82985920D02*
X159559300Y-82985920D01*
X156899300Y-44825920D02*
X156899300Y-82985920D01*
X159559300Y-44825920D02*
X159559300Y-82985920D01*
X156899300Y-44825920D02*
X159559300Y-44825920D01*
X156899300Y-43555920D02*
X156899300Y-42225920D01*
X156899300Y-42225920D02*
X158229300Y-42225920D01*
X156899300Y-133785920D02*
X159559300Y-133785920D01*
X156899300Y-95625920D02*
X156899300Y-133785920D01*
X159559300Y-95625920D02*
X159559300Y-133785920D01*
X156899300Y-95625920D02*
X159559300Y-95625920D01*
X156899300Y-94355920D02*
X156899300Y-93025920D01*
X156899300Y-93025920D02*
X158229300Y-93025920D01*
X75936800Y-82985920D02*
X78596800Y-82985920D01*
X75936800Y-44825920D02*
X75936800Y-82985920D01*
X78596800Y-44825920D02*
X78596800Y-82985920D01*
X75936800Y-44825920D02*
X78596800Y-44825920D01*
X75936800Y-43555920D02*
X75936800Y-42225920D01*
X75936800Y-42225920D02*
X77266800Y-42225920D01*
X128766880Y-181827480D02*
X128766880Y-179167480D01*
X126166880Y-181827480D02*
X128766880Y-181827480D01*
X126166880Y-179167480D02*
X128766880Y-179167480D01*
X126166880Y-181827480D02*
X126166880Y-179167480D01*
X124896880Y-181827480D02*
X123566880Y-181827480D01*
X123566880Y-181827480D02*
X123566880Y-180497480D01*
X111600300Y-186705920D02*
X108940300Y-186705920D01*
X111600300Y-207085920D02*
X111600300Y-186705920D01*
X108940300Y-207085920D02*
X108940300Y-186705920D01*
X111600300Y-207085920D02*
X108940300Y-207085920D01*
X111600300Y-208355920D02*
X111600300Y-209685920D01*
X111600300Y-209685920D02*
X110270300Y-209685920D01*
D12*
X157153600Y-203605920D02*
X149533600Y-203605920D01*
X149533600Y-212495920D02*
X157153600Y-212495920D01*
X149533600Y-203605920D02*
X149533600Y-212495920D01*
X157153600Y-203605920D02*
X157153600Y-212495920D01*
X158423600Y-199795920D02*
X158423600Y-195985920D01*
X158423600Y-195985920D02*
X157153600Y-195985920D01*
X157153600Y-195985920D02*
X155883600Y-195985920D01*
X155883600Y-195985920D02*
X155883600Y-199795920D01*
X155883600Y-199795920D02*
X158423600Y-199795920D01*
X155883600Y-162965920D02*
X155883600Y-166775920D01*
X155883600Y-166775920D02*
X150803600Y-166775920D01*
X150803600Y-166775920D02*
X150803600Y-162965920D01*
X150803600Y-162965920D02*
X155883600Y-162965920D01*
X159693600Y-185825920D02*
X153343600Y-192175920D01*
X153343600Y-192175920D02*
X146993600Y-185825920D01*
X146993600Y-185825920D02*
X153343600Y-179475920D01*
X153343600Y-179475920D02*
X159693600Y-185825920D01*
X144453600Y-211225920D02*
X144453600Y-160425920D01*
X144453600Y-160425920D02*
X162233600Y-160425920D01*
X162233600Y-160425920D02*
X162233600Y-211225920D01*
X162233600Y-211225920D02*
X144453600Y-211225920D01*
X91667380Y-210743880D02*
X86069220Y-210743880D01*
X86267340Y-211241720D02*
X86267340Y-210743880D01*
X91469260Y-210743880D02*
X91469260Y-211241720D01*
X88868300Y-211241720D02*
X88868300Y-210743880D01*
X86069220Y-205442900D02*
X91667380Y-205442900D01*
X86069220Y-211241720D02*
X91667380Y-211241720D01*
X91667380Y-211241720D02*
X91667380Y-205044120D01*
X91667380Y-205044120D02*
X86069220Y-205044120D01*
X86069220Y-205044120D02*
X86069220Y-211241720D01*
X76933466Y-91478300D02*
X76933466Y-92192586D01*
X76885847Y-92335443D01*
X76790609Y-92430681D01*
X76647752Y-92478300D01*
X76552514Y-92478300D01*
X77885847Y-91478300D02*
X77409657Y-91478300D01*
X77362038Y-91954491D01*
X77409657Y-91906872D01*
X77504895Y-91859253D01*
X77742990Y-91859253D01*
X77838228Y-91906872D01*
X77885847Y-91954491D01*
X77933466Y-92049729D01*
X77933466Y-92287824D01*
X77885847Y-92383062D01*
X77838228Y-92430681D01*
X77742990Y-92478300D01*
X77504895Y-92478300D01*
X77409657Y-92430681D01*
X77362038Y-92383062D01*
X80189080Y-186206824D02*
X80998604Y-186206824D01*
X81093842Y-186159205D01*
X81141461Y-186111586D01*
X81189080Y-186016348D01*
X81189080Y-185825872D01*
X81141461Y-185730634D01*
X81093842Y-185683015D01*
X80998604Y-185635396D01*
X80189080Y-185635396D01*
X81189080Y-184635396D02*
X81189080Y-185206824D01*
X81189080Y-184921110D02*
X80189080Y-184921110D01*
X80331938Y-185016348D01*
X80427176Y-185111586D01*
X80474795Y-185206824D01*
X76141404Y-147841300D02*
X76141404Y-146841300D01*
X76712833Y-147841300D02*
X76284261Y-147269872D01*
X76712833Y-146841300D02*
X76141404Y-147412729D01*
X77665214Y-147841300D02*
X77093785Y-147841300D01*
X77379500Y-147841300D02*
X77379500Y-146841300D01*
X77284261Y-146984158D01*
X77189023Y-147079396D01*
X77093785Y-147127015D01*
X89644561Y-158480300D02*
X89311228Y-158004110D01*
X89073133Y-158480300D02*
X89073133Y-157480300D01*
X89454085Y-157480300D01*
X89549323Y-157527920D01*
X89596942Y-157575539D01*
X89644561Y-157670777D01*
X89644561Y-157813634D01*
X89596942Y-157908872D01*
X89549323Y-157956491D01*
X89454085Y-158004110D01*
X89073133Y-158004110D01*
X89930276Y-157480300D02*
X90263609Y-158480300D01*
X90596942Y-157480300D01*
X91454085Y-158480300D02*
X90882657Y-158480300D01*
X91168371Y-158480300D02*
X91168371Y-157480300D01*
X91073133Y-157623158D01*
X90977895Y-157718396D01*
X90882657Y-157766015D01*
X74652914Y-141707806D02*
X74652914Y-140707806D01*
X74891010Y-140707806D01*
X75033867Y-140755426D01*
X75129105Y-140850664D01*
X75176724Y-140945902D01*
X75224343Y-141136378D01*
X75224343Y-141279235D01*
X75176724Y-141469711D01*
X75129105Y-141564949D01*
X75033867Y-141660187D01*
X74891010Y-141707806D01*
X74652914Y-141707806D01*
X76176724Y-141707806D02*
X75605295Y-141707806D01*
X75891010Y-141707806D02*
X75891010Y-140707806D01*
X75795771Y-140850664D01*
X75700533Y-140945902D01*
X75605295Y-140993521D01*
X95820380Y-151839253D02*
X96534666Y-151839253D01*
X96677523Y-151886872D01*
X96772761Y-151982110D01*
X96820380Y-152124967D01*
X96820380Y-152220205D01*
X96820380Y-150839253D02*
X96820380Y-151410681D01*
X96820380Y-151124967D02*
X95820380Y-151124967D01*
X95963238Y-151220205D01*
X96058476Y-151315443D01*
X96106095Y-151410681D01*
X157895966Y-40678300D02*
X157895966Y-41392586D01*
X157848347Y-41535443D01*
X157753109Y-41630681D01*
X157610252Y-41678300D01*
X157515014Y-41678300D01*
X158324538Y-40773539D02*
X158372157Y-40725920D01*
X158467395Y-40678300D01*
X158705490Y-40678300D01*
X158800728Y-40725920D01*
X158848347Y-40773539D01*
X158895966Y-40868777D01*
X158895966Y-40964015D01*
X158848347Y-41106872D01*
X158276919Y-41678300D01*
X158895966Y-41678300D01*
X157895966Y-91478300D02*
X157895966Y-92192586D01*
X157848347Y-92335443D01*
X157753109Y-92430681D01*
X157610252Y-92478300D01*
X157515014Y-92478300D01*
X158276919Y-91478300D02*
X158895966Y-91478300D01*
X158562633Y-91859253D01*
X158705490Y-91859253D01*
X158800728Y-91906872D01*
X158848347Y-91954491D01*
X158895966Y-92049729D01*
X158895966Y-92287824D01*
X158848347Y-92383062D01*
X158800728Y-92430681D01*
X158705490Y-92478300D01*
X158419776Y-92478300D01*
X158324538Y-92430681D01*
X158276919Y-92383062D01*
X76933466Y-40678300D02*
X76933466Y-41392586D01*
X76885847Y-41535443D01*
X76790609Y-41630681D01*
X76647752Y-41678300D01*
X76552514Y-41678300D01*
X77838228Y-41011634D02*
X77838228Y-41678300D01*
X77600133Y-40630681D02*
X77362038Y-41344967D01*
X77981085Y-41344967D01*
X122019260Y-180830813D02*
X122733546Y-180830813D01*
X122876403Y-180878432D01*
X122971641Y-180973670D01*
X123019260Y-181116527D01*
X123019260Y-181211765D01*
X122019260Y-179926051D02*
X122019260Y-180116527D01*
X122066880Y-180211765D01*
X122114499Y-180259384D01*
X122257356Y-180354622D01*
X122447832Y-180402241D01*
X122828784Y-180402241D01*
X122924022Y-180354622D01*
X122971641Y-180307003D01*
X123019260Y-180211765D01*
X123019260Y-180021289D01*
X122971641Y-179926051D01*
X122924022Y-179878432D01*
X122828784Y-179830813D01*
X122590689Y-179830813D01*
X122495451Y-179878432D01*
X122447832Y-179926051D01*
X122400213Y-180021289D01*
X122400213Y-180211765D01*
X122447832Y-180307003D01*
X122495451Y-180354622D01*
X122590689Y-180402241D01*
X109936966Y-210138300D02*
X109936966Y-210852586D01*
X109889347Y-210995443D01*
X109794109Y-211090681D01*
X109651252Y-211138300D01*
X109556014Y-211138300D01*
X110556014Y-210566872D02*
X110460776Y-210519253D01*
X110413157Y-210471634D01*
X110365538Y-210376396D01*
X110365538Y-210328777D01*
X110413157Y-210233539D01*
X110460776Y-210185920D01*
X110556014Y-210138300D01*
X110746490Y-210138300D01*
X110841728Y-210185920D01*
X110889347Y-210233539D01*
X110936966Y-210328777D01*
X110936966Y-210376396D01*
X110889347Y-210471634D01*
X110841728Y-210519253D01*
X110746490Y-210566872D01*
X110556014Y-210566872D01*
X110460776Y-210614491D01*
X110413157Y-210662110D01*
X110365538Y-210757348D01*
X110365538Y-210947824D01*
X110413157Y-211043062D01*
X110460776Y-211090681D01*
X110556014Y-211138300D01*
X110746490Y-211138300D01*
X110841728Y-211090681D01*
X110889347Y-211043062D01*
X110936966Y-210947824D01*
X110936966Y-210757348D01*
X110889347Y-210662110D01*
X110841728Y-210614491D01*
X110746490Y-210566872D01*
X142635980Y-186587824D02*
X143445504Y-186587824D01*
X143540742Y-186540205D01*
X143588361Y-186492586D01*
X143635980Y-186397348D01*
X143635980Y-186206872D01*
X143588361Y-186111634D01*
X143540742Y-186064015D01*
X143445504Y-186016396D01*
X142635980Y-186016396D01*
X142731219Y-185587824D02*
X142683600Y-185540205D01*
X142635980Y-185444967D01*
X142635980Y-185206872D01*
X142683600Y-185111634D01*
X142731219Y-185064015D01*
X142826457Y-185016396D01*
X142921695Y-185016396D01*
X143064552Y-185064015D01*
X143635980Y-185635443D01*
X143635980Y-185016396D01*
X88534966Y-203094420D02*
X88534966Y-203808706D01*
X88487347Y-203951563D01*
X88392109Y-204046801D01*
X88249252Y-204094420D01*
X88154014Y-204094420D01*
X88915919Y-203094420D02*
X89582585Y-203094420D01*
X89154014Y-204094420D01*
M02*
