M48
INCH,TZ
T1C0.0276
T2C0.0315
T3C0.0394
T4C0.0432
T5C0.0433
T6C0.0472
T7C0.0984
%
G90
G05
T1
X34527Y-64208
X35527Y-63208
X35527Y-65208
T2
X28768Y-58968
X28768Y-59968
X28768Y-63968
X28768Y-64968
X31768Y-58968
X31768Y-59968
X31768Y-63968
X31768Y-64968
T3
X30420Y-17148
X30420Y-18148
X30420Y-19148
X30420Y-20148
X30420Y-21148
X30420Y-22148
X30420Y-23148
X30420Y-24148
X30420Y-25148
X30420Y-26148
X30420Y-27148
X30420Y-28148
X30420Y-29148
X30420Y-30148
X30420Y-31148
X30420Y-32148
X29182Y-56616
X30182Y-56616
X62295Y-37148
X62295Y-38148
X62295Y-39148
X62295Y-40148
X62295Y-41148
X62295Y-42148
X62295Y-43148
X62295Y-44148
X62295Y-45148
X62295Y-46148
X62295Y-47148
X62295Y-48148
X62295Y-49148
X62295Y-50148
X62295Y-51148
X62295Y-52148
X43414Y-74030
X43414Y-75030
X43414Y-76030
X43414Y-77030
X43414Y-78030
X43414Y-79030
X43414Y-80030
X43414Y-81030
X43414Y-82030
X30420Y-37148
X30420Y-38148
X30420Y-39148
X30420Y-40148
X30420Y-41148
X30420Y-42148
X30420Y-43148
X30420Y-44148
X30420Y-45148
X30420Y-46148
X30420Y-47148
X30420Y-48148
X30420Y-49148
X30420Y-50148
X30420Y-51148
X30420Y-52148
X62295Y-17148
X62295Y-18148
X62295Y-19148
X62295Y-20148
X62295Y-21148
X62295Y-22148
X62295Y-23148
X62295Y-24148
X62295Y-25148
X62295Y-26148
X62295Y-27148
X62295Y-28148
X62295Y-29148
X62295Y-30148
X62295Y-31148
X62295Y-32148
X49172Y-71062
X50172Y-71062
X38857Y-59648
X39857Y-59648
X40857Y-59648
X41857Y-59648
X42857Y-59648
X43857Y-59648
X44857Y-59648
X45857Y-59648
X46857Y-59648
X47857Y-59648
X48857Y-59648
X49857Y-59648
X50857Y-59648
X51857Y-59648
X52857Y-59648
X53857Y-59648
T4
X34488Y-81946
X35488Y-81946
T5
X57371Y-63660
X57371Y-64660
X57371Y-65660
X57371Y-66660
X57371Y-67660
X57371Y-68660
X57371Y-69660
X57371Y-70660
X57371Y-71660
X57371Y-72660
X57371Y-73660
X57371Y-74660
X57371Y-75660
X57371Y-76660
X57371Y-77660
X57371Y-78660
X57371Y-79660
X57371Y-80660
X57371Y-81660
X57371Y-82660
X59371Y-63660
X59371Y-66660
X59371Y-67660
X59371Y-68660
X59371Y-69660
X60371Y-63660
X60371Y-66660
X60371Y-67660
X60371Y-68660
X60371Y-69660
X61371Y-63660
X61371Y-66660
X63371Y-63660
X63371Y-64660
X63371Y-65660
X63371Y-66660
X63371Y-67660
X63371Y-68660
X63371Y-69660
X63371Y-70660
X63371Y-71660
X63371Y-72660
X63371Y-73660
X63371Y-74660
X63371Y-75660
X63371Y-76660
X63371Y-77660
X63371Y-78660
X63371Y-79660
X63371Y-80660
X63371Y-81660
X63371Y-82660
T6
X27574Y-69006
X27574Y-77006
X30574Y-77006
X31574Y-69006
X32574Y-77006
X35574Y-69006
T7
X33420Y-16648
X65295Y-16648
X27420Y-16648
X65295Y-82648
X30420Y-34648
X27420Y-82648
X59295Y-16648
X57295Y-60273
X62295Y-34648
X35420Y-60273
T0
M30
